<?xml version="1.0" standalone="no"?>
<!DOCTYPE svg PUBLIC "-//W3C//DTD SVG 20010904//EN"
 "http://www.w3.org/TR/2001/REC-SVG-20010904/DTD/svg10.dtd">
<svg version="1.0" xmlns="http://www.w3.org/2000/svg"
 width="1024.000000pt" height="1024.000000pt" viewBox="0 0 1024.000000 1024.000000"
 preserveAspectRatio="xMidYMid meet">
<metadata>
Created by potrace 1.14, written by Peter Selinger 2001-2017
</metadata>
<g transform="translate(0.000000,1024.000000) scale(0.100000,-0.100000)"
fill="#000000" stroke="none">
<path d="M3440 7765 c0 -17 -2 -17 -10 -5 -5 8 -10 10 -10 5 0 -6 -10 -16 -21
-24 -19 -11 -21 -11 -16 3 6 15 4 15 -17 0 -25 -16 -43 -5 -31 19 4 6 -1 3 -9
-7 -13 -16 -13 -22 -3 -29 8 -6 7 -7 -5 -3 -10 3 -20 1 -23 -5 -8 -12 -37 -8
-47 6 -5 6 -8 4 -8 -5 0 -13 -1 -13 -10 0 -8 13 -10 13 -10 -2 0 -11 -6 -16
-20 -13 -11 2 -22 -1 -26 -6 -3 -5 -15 -7 -27 -4 -12 2 -16 2 -9 -1 18 -9 15
-20 -8 -21 -11 -1 -20 4 -20 10 0 7 -4 6 -9 -3 -6 -8 -8 -17 -5 -21 2 -4 -4
-6 -13 -4 -10 1 -25 -6 -34 -18 -12 -15 -18 -17 -24 -7 -6 9 -4 11 5 5 9 -5
11 -4 6 3 -5 9 -12 9 -26 0 -10 -7 -16 -16 -14 -20 3 -4 -5 -8 -17 -8 -19 0
-20 -2 -8 -17 7 -10 9 -15 5 -11 -5 4 -16 2 -24 -5 -10 -7 -13 -8 -9 -1 4 8
-2 11 -18 10 -21 -1 -23 -3 -10 -12 18 -14 20 -27 3 -21 -7 2 -19 -3 -26 -12
-8 -9 -11 -11 -8 -4 4 6 1 15 -5 19 -8 4 -9 3 -5 -4 4 -8 0 -12 -11 -12 -14 0
-15 -2 -4 -9 9 -6 10 -11 2 -15 -6 -4 -16 -4 -23 0 -8 5 -9 2 -5 -10 5 -12 2
-16 -11 -14 -12 2 -17 -4 -17 -19 0 -12 -5 -26 -9 -30 -5 -4 -6 -3 -2 4 3 6 2
14 -4 18 -5 3 -10 1 -10 -5 0 -6 -5 -8 -12 -4 -9 5 -9 2 1 -9 12 -15 11 -17
-4 -17 -10 0 -15 -3 -12 -7 4 -3 2 -12 -4 -20 -8 -9 -15 -10 -24 -3 -10 8 -15
8 -21 -1 -4 -7 -3 -9 4 -5 6 4 10 -1 9 -13 -1 -15 -5 -17 -18 -10 -14 7 -17 5
-15 -15 2 -14 -1 -30 -6 -38 -7 -9 -8 -8 -4 5 3 11 2 16 -4 12 -6 -3 -10 -13
-10 -21 0 -8 -4 -12 -10 -9 -6 4 -7 -1 -3 -11 5 -13 3 -15 -8 -9 -11 7 -11 5
1 -10 14 -17 13 -18 -2 -13 -10 4 -23 -1 -35 -14 -10 -12 -12 -18 -5 -14 6 4
12 2 12 -3 0 -6 -4 -11 -10 -11 -5 0 -10 -5 -10 -11 0 -5 5 -7 10 -4 16 10 11
-1 -7 -16 -14 -12 -16 -12 -9 1 4 9 2 8 -7 -2 -8 -10 -18 -14 -22 -10 -5 4 -5
2 -1 -5 4 -7 12 -11 19 -9 7 1 9 1 5 -1 -4 -2 -4 -12 -1 -21 3 -10 1 -13 -4
-7 -4 6 -14 11 -21 13 -10 2 -10 -2 -1 -19 9 -18 9 -21 -3 -16 -8 3 -15 -1
-15 -9 0 -7 5 -11 11 -7 6 3 -1 -6 -17 -20 -24 -21 -25 -26 -11 -31 13 -5 15
-9 6 -18 -15 -15 -15 -31 0 -22 7 4 8 3 4 -5 -4 -6 -11 -9 -16 -6 -5 3 -11 1
-15 -5 -3 -5 -1 -10 6 -10 10 0 10 -3 1 -12 -7 -7 -12 -20 -12 -30 0 -10 -6
-18 -12 -18 -9 0 -8 -4 2 -10 13 -9 13 -10 0 -10 -12 0 -12 -2 -1 -9 8 -5 9
-11 3 -15 -11 -7 -11 -24 1 -43 5 -8 4 -13 -2 -13 -6 0 -11 -5 -11 -11 0 -5 5
-7 11 -3 7 4 10 1 7 -7 -3 -8 -11 -13 -17 -12 -6 2 -11 -4 -11 -13 0 -9 5 -12
13 -8 9 6 9 5 0 -8 -7 -8 -9 -19 -5 -23 4 -5 -2 -5 -12 -1 -20 7 -20 7 0 -15
10 -12 13 -19 7 -15 -7 4 -13 2 -13 -3 0 -6 5 -11 11 -11 8 0 8 -4 0 -13 -7
-10 -7 -17 0 -24 8 -8 7 -13 -1 -18 -9 -6 -6 -13 11 -27 23 -19 23 -19 2 -8
-16 7 -23 7 -23 0 0 -5 5 -10 12 -10 9 0 9 -3 0 -12 -14 -14 -16 -32 -3 -23
10 5 5 -40 -5 -57 -3 -4 3 -8 12 -8 16 0 16 -1 -2 -15 -12 -9 -15 -18 -9 -22
13 -11 18 -36 5 -28 -5 3 -10 1 -10 -4 0 -6 6 -11 13 -11 8 0 7 -4 -3 -10 -10
-6 -11 -10 -2 -10 6 0 12 -5 12 -11 0 -5 -4 -8 -9 -4 -5 3 -13 1 -16 -5 -4 -6
-1 -9 5 -8 8 2 13 -14 15 -46 2 -30 -1 -43 -6 -35 -5 8 -9 10 -9 5 0 -5 8 -18
17 -28 16 -18 16 -18 -3 -12 -17 7 -18 6 -4 -11 9 -11 10 -16 3 -11 -7 4 -13
2 -13 -3 0 -6 5 -11 11 -11 8 0 8 -4 0 -13 -7 -10 -7 -17 0 -24 8 -8 7 -13 -1
-18 -9 -6 -6 -13 11 -27 23 -19 23 -19 2 -8 -16 7 -23 7 -23 0 0 -5 5 -10 12
-10 9 0 9 -3 0 -12 -14 -14 -16 -32 -3 -23 10 5 5 -40 -5 -57 -3 -4 3 -8 12
-8 16 0 16 -1 -2 -15 -12 -9 -15 -18 -9 -22 13 -11 18 -36 5 -28 -5 3 -10 1
-10 -4 0 -6 6 -11 13 -11 8 0 7 -4 -3 -10 -10 -6 -11 -10 -2 -10 6 0 12 -5 12
-11 0 -5 -4 -8 -9 -4 -5 3 -13 1 -16 -5 -4 -6 -1 -9 5 -8 8 2 13 -14 15 -46 2
-30 -1 -43 -6 -35 -5 8 -9 10 -9 5 0 -5 8 -18 17 -28 16 -18 16 -18 -3 -12
-17 7 -18 6 -4 -11 9 -11 10 -16 3 -11 -7 4 -13 2 -13 -3 0 -6 5 -11 11 -11 8
0 8 -4 0 -13 -7 -10 -7 -17 0 -24 8 -8 7 -13 -1 -18 -9 -6 -6 -13 11 -27 23
-19 23 -19 2 -8 -16 7 -23 7 -23 0 0 -5 5 -10 12 -10 9 0 9 -3 0 -12 -14 -14
-16 -32 -3 -23 10 5 5 -40 -5 -57 -3 -4 3 -8 12 -8 16 0 16 -1 -2 -15 -12 -9
-15 -18 -9 -22 13 -11 18 -36 5 -28 -5 3 -10 1 -10 -4 0 -6 6 -11 13 -11 8 0
7 -4 -3 -10 -10 -6 -11 -10 -2 -10 6 0 12 -5 12 -11 0 -5 -4 -8 -9 -4 -5 3
-13 1 -16 -5 -4 -6 -1 -9 5 -8 8 2 13 -14 15 -46 2 -30 -1 -43 -6 -35 -5 8 -9
10 -9 5 0 -5 8 -18 17 -28 16 -18 16 -18 -3 -12 -17 7 -18 6 -4 -11 9 -11 10
-16 3 -11 -7 4 -13 2 -13 -3 0 -6 5 -11 12 -11 9 0 9 -3 0 -12 -8 -8 -8 -15
-1 -24 7 -8 6 -14 -2 -20 -8 -5 -4 -13 12 -26 23 -19 23 -19 2 -8 -16 7 -23 7
-23 0 0 -5 5 -10 12 -10 9 0 9 -3 0 -12 -14 -14 -16 -32 -3 -23 10 5 5 -40 -5
-57 -3 -4 3 -8 12 -8 16 0 16 -1 -2 -15 -12 -9 -15 -18 -9 -22 13 -11 18 -36
5 -28 -5 3 -10 1 -10 -4 0 -6 6 -11 13 -11 8 0 7 -4 -3 -10 -10 -6 -11 -10 -2
-10 6 0 12 -5 12 -11 0 -5 -4 -8 -9 -4 -5 3 -13 1 -16 -5 -4 -6 -1 -9 5 -8 8
2 13 -14 15 -46 2 -30 -1 -43 -6 -35 -5 8 -9 10 -9 5 0 -5 8 -18 17 -28 16
-18 16 -18 -3 -12 -17 7 -18 6 -4 -11 9 -11 10 -16 3 -11 -7 4 -13 2 -13 -3 0
-6 5 -11 11 -11 8 0 8 -4 0 -13 -7 -10 -7 -17 0 -24 8 -8 7 -13 -1 -18 -9 -6
-6 -13 11 -27 23 -19 23 -19 2 -8 -16 7 -23 7 -23 0 0 -5 5 -10 12 -10 9 0 9
-3 0 -12 -14 -14 -16 -32 -3 -23 10 5 5 -40 -5 -57 -3 -4 3 -8 12 -8 16 0 16
-1 -2 -15 -12 -9 -15 -18 -9 -22 13 -11 18 -36 5 -28 -5 3 -10 1 -10 -4 0 -6
6 -11 13 -11 8 0 7 -4 -3 -10 -10 -6 -11 -10 -2 -10 6 0 12 -5 12 -11 0 -5 -4
-8 -9 -4 -5 3 -13 1 -16 -5 -4 -6 -1 -9 5 -8 8 2 13 -14 15 -46 2 -30 -1 -43
-6 -35 -5 8 -9 10 -9 5 0 -5 8 -18 17 -28 16 -18 16 -18 -3 -12 -17 7 -18 6
-4 -11 9 -11 10 -16 2 -11 -6 4 -12 2 -12 -3 0 -6 5 -11 11 -11 8 0 8 -4 0
-13 -7 -10 -7 -17 0 -24 8 -8 7 -13 -1 -18 -9 -6 -6 -13 11 -27 23 -19 23 -19
2 -8 -16 7 -23 7 -23 0 0 -5 5 -10 12 -10 9 0 9 -3 0 -12 -14 -14 -16 -32 -3
-23 10 5 5 -40 -5 -57 -3 -4 3 -8 12 -8 16 0 16 -1 -2 -15 -12 -9 -15 -18 -9
-22 13 -11 18 -36 5 -28 -5 3 -10 1 -10 -4 0 -6 6 -11 13 -11 8 0 7 -4 -3 -10
-10 -6 -11 -10 -2 -10 6 0 12 -5 12 -11 0 -5 -4 -8 -9 -4 -5 3 -13 1 -16 -5
-4 -6 -1 -9 5 -8 8 2 13 -14 15 -46 2 -30 -1 -43 -6 -35 -5 8 -9 10 -9 5 0 -5
8 -18 17 -28 16 -18 16 -18 -3 -12 -17 7 -18 6 -4 -11 9 -11 10 -16 3 -11 -7
4 -13 2 -13 -3 0 -6 5 -11 11 -11 8 0 8 -4 0 -13 -7 -10 -7 -17 0 -24 8 -8 7
-13 -1 -18 -9 -6 -6 -13 11 -27 23 -19 23 -19 1 -8 -15 7 -22 7 -22 0 0 -5 5
-10 11 -10 8 0 8 -4 0 -14 -10 -11 -8 -17 6 -26 16 -10 16 -11 1 -6 -10 3 -18
1 -18 -4 0 -6 5 -10 11 -10 8 0 8 -5 -1 -15 -12 -14 -7 -19 13 -16 5 1 6 -3 2
-9 -3 -6 -11 -7 -17 -4 -7 5 -7 1 -1 -11 12 -22 5 -57 -10 -48 -6 3 -7 1 -3
-6 4 -6 11 -9 16 -6 4 3 10 -2 14 -10 3 -8 0 -17 -6 -21 -7 -5 -8 -2 -3 6 5 9
4 11 -4 6 -15 -10 -3 -29 15 -22 11 4 12 1 5 -13 -7 -12 -6 -22 1 -29 9 -9 6
-11 -9 -8 -12 3 -20 -1 -20 -10 0 -9 4 -11 10 -5 5 5 16 7 24 4 11 -5 12 -8 2
-14 -7 -4 -14 -15 -15 -23 -1 -9 1 -14 6 -11 14 8 30 -51 17 -64 -8 -8 -7 -11
4 -11 12 0 12 -2 -1 -10 -13 -8 -12 -10 3 -10 9 0 17 -5 17 -11 0 -5 -5 -7
-11 -3 -8 5 -8 1 0 -13 6 -11 7 -24 3 -28 -4 -5 -1 -5 6 -1 7 4 9 12 6 18 -4
6 -2 8 4 5 5 -4 8 -16 5 -27 -3 -11 -10 -17 -16 -13 -6 3 -7 1 -3 -5 4 -6 13
-9 21 -5 18 6 20 -8 3 -26 -11 -11 -9 -12 10 -6 12 3 22 3 21 -2 -4 -26 2 -44
14 -37 8 5 8 2 -2 -9 -9 -12 -10 -17 -2 -17 7 0 9 -4 6 -10 -3 -6 2 -10 12
-10 12 0 14 -3 6 -8 -9 -6 -7 -12 7 -22 13 -10 16 -18 9 -26 -6 -8 -5 -14 6
-18 9 -3 13 -10 10 -16 -3 -5 5 -15 19 -21 14 -7 28 -20 32 -31 3 -10 9 -16
14 -13 4 3 11 -6 14 -20 4 -14 10 -24 14 -24 20 3 33 -2 27 -11 -3 -5 -1 -10
5 -10 6 0 8 -5 5 -10 -4 -6 -1 -9 7 -8 7 2 12 -3 10 -11 -3 -12 -1 -12 15 -1
10 8 15 10 11 6 -5 -5 1 -15 12 -23 12 -8 17 -20 13 -30 -4 -11 -3 -14 5 -9 7
4 12 2 12 -3 0 -6 5 -11 11 -11 5 0 7 6 3 13 -5 8 -2 8 9 -2 19 -15 23 -26 5
-15 -7 5 -8 3 -4 -5 5 -7 14 -10 22 -7 7 3 16 1 19 -5 4 -5 11 -7 16 -4 5 3 6
0 3 -8 -3 -8 3 -20 12 -28 10 -8 15 -9 11 -2 -4 6 -2 15 4 19 7 4 9 3 6 -3 -4
-6 1 -19 9 -29 9 -10 12 -13 8 -5 -5 10 -3 12 5 7 7 -5 10 -14 7 -21 -3 -9 2
-11 16 -7 16 4 19 2 13 -9 -8 -12 -6 -12 8 0 12 9 17 10 17 2 0 -7 5 -9 10 -6
6 3 10 -2 10 -12 0 -15 2 -16 10 -3 8 12 10 12 11 -5 0 -11 3 -14 6 -7 3 9 11
6 26 -10 14 -17 18 -18 14 -5 -4 9 -2 17 3 17 6 0 10 -5 10 -11 0 -5 5 -7 10
-4 6 3 10 -2 10 -12 0 -15 2 -16 10 -3 8 12 10 12 10 1 0 -10 4 -11 13 -3 8 7
18 6 31 -4 13 -9 15 -14 6 -14 -7 0 -10 -3 -7 -6 4 -4 13 -1 22 6 12 10 15 10
15 -1 0 -11 2 -11 10 1 9 13 10 13 10 0 0 -12 2 -12 9 -2 6 10 10 8 15 -10 6
-22 7 -23 21 -4 15 19 15 19 15 -5 0 -19 2 -21 10 -9 12 20 50 20 74 1 18 -15
18 -15 6 9 -12 23 -12 24 5 10 20 -17 105 -21 105 -6 0 6 5 4 10 -4 9 -13 10
-13 10 0 0 13 1 13 10 0 8 -12 10 -12 10 -1 0 11 3 11 17 0 9 -8 14 -9 10 -3
-8 13 31 13 52 0 11 -7 13 -5 8 10 -5 14 -2 13 13 -6 11 -14 18 -18 14 -9 -6
20 11 34 22 18 5 -8 3 -9 -7 -4 -12 7 -12 6 0 -6 10 -11 15 -11 18 -1 3 6 10
9 16 5 20 -12 37 -12 37 0 0 7 5 5 10 -3 9 -13 10 -13 10 0 0 13 1 13 10 0 8
-12 10 -12 10 -1 0 11 3 11 17 0 9 -8 14 -9 10 -3 -8 13 31 13 52 0 11 -7 13
-5 8 10 -5 14 -2 13 13 -6 11 -14 18 -18 14 -9 -6 20 11 34 22 18 5 -8 3 -9
-7 -4 -12 7 -12 6 0 -6 10 -11 15 -11 18 -1 3 6 10 9 16 5 20 -12 37 -12 37 0
0 7 5 5 10 -3 9 -13 10 -13 10 0 0 13 1 13 10 0 8 -12 10 -12 10 -1 0 11 3 11
17 0 9 -8 14 -9 10 -3 -8 13 31 13 52 0 11 -7 13 -5 8 10 -5 14 -2 13 13 -6
11 -14 18 -18 14 -9 -6 20 11 34 22 18 5 -8 3 -9 -7 -4 -12 7 -12 6 0 -6 10
-11 15 -11 18 -1 3 6 10 9 16 5 20 -12 37 -12 37 0 0 7 5 5 10 -3 9 -13 10
-13 10 0 0 13 1 13 10 0 8 -12 10 -12 10 -1 0 11 3 11 17 0 9 -8 14 -9 10 -3
-8 13 31 13 52 0 11 -7 13 -5 8 10 -5 14 -2 13 13 -6 11 -14 18 -18 14 -9 -6
20 11 34 22 18 5 -8 3 -9 -7 -4 -12 7 -12 6 0 -6 10 -11 15 -11 18 -1 3 6 10
9 16 5 20 -12 37 -12 37 0 0 7 5 5 10 -3 9 -13 10 -13 10 0 0 13 1 13 10 0 8
-12 10 -12 10 -1 0 11 3 11 17 0 9 -8 14 -9 10 -3 -8 13 31 13 52 0 11 -7 13
-5 8 10 -5 14 -2 13 13 -6 11 -14 18 -18 14 -9 -6 20 11 34 22 18 5 -8 3 -9
-7 -4 -12 7 -12 6 0 -6 10 -11 15 -11 18 -1 3 6 10 9 16 5 20 -12 37 -12 37 0
0 7 5 5 10 -3 9 -13 10 -13 10 0 0 13 1 13 10 0 8 -12 10 -12 10 -1 0 11 3 11
17 0 9 -8 14 -9 10 -3 -8 13 31 13 52 0 11 -7 13 -5 8 10 -5 14 -2 12 12 -6
l20 -25 -6 25 c-5 25 -5 25 11 5 13 -15 19 -17 23 -7 4 10 8 10 21 0 13 -11
14 -11 7 2 -8 13 -7 13 8 1 14 -11 17 -11 17 0 0 11 2 11 10 -1 9 -13 10 -13
10 0 0 13 1 13 10 0 8 -12 10 -12 10 -1 0 11 3 11 17 0 9 -8 14 -9 11 -4 -4 6
6 11 23 11 16 1 29 -2 29 -6 0 -4 7 -11 16 -14 13 -5 14 -3 6 7 -9 10 -6 13
13 13 14 0 25 -4 25 -10 0 -5 3 -6 6 -3 4 3 16 1 28 -5 18 -10 19 -9 9 3 -10
13 -8 15 12 15 14 0 25 -4 25 -10 0 -5 3 -6 6 -3 4 3 16 1 28 -5 18 -10 19 -9
9 3 -10 13 -8 15 12 15 14 0 25 -4 25 -10 0 -5 3 -6 6 -3 4 3 16 1 28 -5 18
-10 19 -9 9 3 -10 13 -8 15 12 15 14 0 25 -4 25 -10 0 -5 3 -6 6 -3 4 3 16 1
28 -5 18 -10 19 -9 9 3 -10 13 -8 15 12 15 14 0 25 -4 25 -10 0 -5 3 -6 6 -3
4 3 16 1 28 -5 18 -10 19 -9 9 3 -10 13 -8 15 12 15 14 0 25 -4 25 -10 0 -5 3
-6 6 -3 4 3 16 1 28 -5 18 -10 19 -9 9 3 -10 13 -8 15 12 15 14 0 25 -4 25
-10 0 -5 3 -6 6 -3 4 3 16 1 28 -5 18 -10 19 -9 9 3 -10 13 -8 15 12 15 14 0
25 -4 25 -10 0 -5 3 -6 6 -3 4 3 16 1 28 -5 18 -10 19 -9 9 3 -10 13 -8 15 12
15 14 0 25 -4 25 -10 0 -5 3 -6 6 -3 4 3 16 1 28 -5 18 -10 19 -9 9 3 -10 13
-8 15 12 15 14 0 25 -4 25 -10 0 -5 3 -6 6 -3 4 3 16 1 28 -5 18 -10 19 -9 9
3 -10 13 -8 15 12 15 14 0 25 -4 25 -10 0 -5 3 -6 6 -3 4 3 16 1 28 -5 18 -10
19 -9 9 3 -10 13 -8 15 12 15 14 0 25 -4 25 -10 0 -5 3 -6 6 -3 4 3 16 1 28
-5 18 -10 19 -9 9 3 -10 13 -8 15 12 15 14 0 25 -4 25 -10 0 -5 3 -6 6 -3 4 3
16 1 28 -5 18 -10 19 -9 9 3 -10 13 -8 15 12 15 14 0 25 -4 25 -10 0 -5 3 -6
6 -3 4 3 16 1 28 -5 18 -10 19 -9 9 3 -10 13 -8 15 12 15 14 0 25 -4 25 -10 0
-5 3 -6 6 -3 4 3 16 1 28 -5 18 -10 19 -9 9 3 -10 13 -8 15 12 15 14 0 25 -4
25 -10 0 -5 3 -6 6 -3 4 3 16 1 28 -5 18 -10 19 -9 9 3 -10 13 -8 15 12 15 14
0 25 -4 25 -10 0 -5 3 -6 6 -3 4 3 16 1 28 -5 18 -10 19 -9 9 3 -10 13 -8 15
12 15 14 0 25 -4 25 -10 0 -5 3 -6 6 -3 4 3 16 1 28 -5 18 -10 19 -9 9 3 -10
13 -8 15 12 15 14 0 25 -4 25 -10 0 -5 3 -6 6 -3 4 3 16 1 28 -5 18 -10 19 -9
9 3 -10 13 -8 15 12 15 14 0 25 -3 25 -6 0 -3 9 -6 20 -7 11 -1 18 2 16 6 -3
4 1 8 9 8 8 0 11 -5 8 -11 -4 -6 1 -5 10 3 9 7 17 9 17 4 0 -5 9 -9 20 -10 11
-1 18 2 16 6 -3 4 1 8 9 8 8 0 11 -5 8 -11 -4 -6 1 -5 10 3 11 9 17 10 17 2 0
-13 22 -10 32 4 5 6 8 4 8 -5 0 -13 1 -13 10 0 6 9 10 10 10 3 0 -6 9 -11 19
-10 16 1 18 4 9 22 -10 17 -9 18 4 8 11 -10 17 -10 27 0 11 9 14 9 18 -1 4
-10 8 -10 21 0 12 10 14 10 8 1 -5 -9 -2 -11 8 -7 9 3 14 10 11 14 -3 4 2 11
11 14 8 3 13 2 10 -3 -6 -10 24 -25 32 -16 3 3 0 5 -6 5 -7 0 -12 5 -12 10 0
6 11 8 25 6 16 -3 23 -1 19 6 -4 7 2 8 17 3 22 -6 22 -6 6 6 -16 13 -16 14 7
14 16 0 22 -4 18 -14 -3 -9 2 -7 15 5 11 10 18 22 16 25 -1 4 4 10 13 13 9 4
13 2 8 -5 -4 -7 -2 -10 5 -8 7 3 12 9 12 14 0 6 7 14 15 18 8 5 12 14 8 20 -3
7 4 1 15 -12 19 -21 26 -17 23 11 -1 3 6 12 15 20 10 8 14 8 10 1 -4 -6 -2
-15 4 -19 7 -4 9 -3 6 3 -4 6 1 19 9 29 15 19 16 19 9 0 -4 -16 0 -14 21 7 15
15 31 27 36 27 5 0 6 5 2 11 -5 9 1 10 21 5 25 -6 26 -6 11 9 -20 21 -20 26 1
18 12 -5 14 -3 8 8 -8 12 -6 12 9 0 9 -8 16 -10 15 -5 -4 24 2 36 16 30 13 -4
14 -2 5 14 -6 11 -7 20 -3 19 4 -1 17 -1 27 0 20 1 20 1 0 16 -18 14 -18 14 2
9 12 -3 25 0 29 7 5 7 4 10 -1 6 -6 -3 -10 4 -11 16 0 12 1 16 4 10 6 -16 24
-17 20 -1 -1 6 8 17 21 23 13 7 24 16 25 21 1 5 6 8 10 6 5 -1 6 2 2 8 -3 6
-12 7 -18 3 -8 -4 -7 -1 1 9 7 9 22 15 32 13 13 -3 17 1 13 12 -5 12 -7 12
-14 1 -7 -10 -9 -10 -9 0 0 7 7 15 15 18 8 4 15 10 15 16 0 5 -6 6 -12 2 -8
-4 -10 -3 -5 2 5 5 14 9 20 9 5 0 12 6 15 14 3 8 0 11 -7 7 -7 -4 -9 -1 -5 8
3 9 12 12 21 9 12 -5 14 -3 7 8 -14 23 -13 36 4 35 9 0 17 5 18 12 1 6 3 13 4
15 7 8 5 57 -3 57 -5 0 2 9 17 21 21 16 24 24 16 35 -9 10 -7 18 9 35 11 13
18 25 15 28 -3 3 -9 -1 -14 -9 -8 -13 -11 -13 -22 -1 -7 8 -8 11 -2 8 7 -4 17
0 24 8 7 8 9 15 5 15 -4 0 -1 8 6 17 10 11 10 14 2 9 -16 -9 -17 6 -1 22 9 9
9 12 -1 12 -7 0 -9 5 -6 10 4 6 10 8 15 5 4 -3 7 3 5 12 -1 10 2 26 7 36 5 11
5 17 -2 17 -5 0 -10 5 -10 11 0 5 4 8 9 4 5 -3 13 -1 16 5 4 6 1 9 -5 8 -8 -2
-13 14 -15 46 -2 30 1 43 6 35 5 -8 9 -10 9 -5 0 5 -8 18 -17 28 -16 18 -16
18 3 12 17 -7 18 -6 4 11 -9 11 -10 16 -2 11 6 -4 12 -2 12 3 0 6 -5 11 -11
11 -8 0 -8 4 0 13 7 10 7 17 0 24 -8 8 -7 13 1 18 9 6 6 13 -11 27 -23 19 -23
19 -1 8 15 -7 22 -7 22 0 0 5 -5 10 -12 10 -9 0 -9 3 0 12 14 14 16 32 3 23
-10 -5 -5 40 5 57 3 4 -3 8 -12 8 -16 0 -16 1 2 15 12 9 15 18 9 22 -13 11
-18 36 -5 28 5 -3 10 -1 10 4 0 6 -6 11 -12 11 -9 0 -8 4 2 10 10 6 11 10 3
10 -7 0 -13 5 -13 11 0 5 4 8 9 4 5 -3 13 -1 16 5 4 6 1 9 -5 8 -8 -2 -13 14
-15 46 -2 30 1 43 6 35 5 -8 9 -10 9 -5 0 5 -8 18 -17 28 -16 18 -16 18 3 12
17 -7 18 -6 4 11 -9 11 -10 16 -2 11 6 -4 12 -2 12 3 0 6 -5 11 -11 11 -8 0
-8 4 0 13 7 10 7 17 0 24 -8 8 -7 13 1 18 9 6 6 13 -11 27 -23 19 -23 19 -1 8
15 -7 22 -7 22 0 0 5 -5 10 -12 10 -9 0 -9 3 0 12 14 14 16 32 3 23 -10 -5 -5
40 5 57 3 4 -3 8 -12 8 -16 0 -16 1 2 15 12 9 15 18 9 22 -13 11 -18 36 -5 28
5 -3 10 -1 10 4 0 6 -6 11 -12 11 -9 0 -8 4 2 10 10 6 11 10 3 10 -7 0 -13 5
-13 11 0 5 4 8 9 4 5 -3 13 -1 16 5 4 6 1 9 -5 8 -8 -2 -13 14 -15 46 -2 30 1
43 6 35 5 -8 9 -10 9 -5 0 5 -8 18 -17 28 -16 18 -16 18 3 12 17 -7 18 -6 4
11 -9 11 -10 16 -2 11 6 -4 12 -2 12 3 0 6 -5 11 -11 11 -8 0 -8 4 0 13 7 10
7 17 0 24 -8 8 -7 13 1 18 9 6 6 13 -11 27 -23 19 -23 19 -1 8 15 -7 22 -7 22
0 0 5 -5 10 -11 10 -8 0 -8 4 0 14 10 11 8 17 -6 26 -16 10 -16 11 0 6 9 -3
17 -1 17 4 0 6 -5 10 -11 10 -8 0 -8 5 1 15 12 14 7 19 -13 16 -5 -1 -6 3 -2
9 3 6 11 7 17 4 7 -5 8 -2 3 5 -4 7 -8 30 -9 52 -2 32 1 39 13 34 11 -4 10 -1
-3 14 -13 14 -16 25 -9 33 14 19 9 68 -7 80 -12 8 -12 9 3 4 9 -3 17 -1 17 4
0 6 -6 10 -12 10 -9 0 -8 4 2 10 10 6 11 10 3 10 -7 0 -13 5 -13 11 0 5 4 8 9
4 5 -3 13 -1 16 5 4 6 1 9 -5 8 -8 -2 -13 14 -15 46 -2 30 1 43 6 35 5 -8 9
-10 9 -5 0 5 -8 18 -17 28 -16 18 -16 18 3 12 17 -7 18 -6 4 11 -9 11 -10 16
-2 11 6 -4 12 -2 12 3 0 6 -5 11 -11 11 -8 0 -8 4 0 13 7 10 7 17 0 24 -8 8
-7 13 1 18 9 6 6 13 -11 27 -23 19 -23 19 -1 8 15 -7 22 -7 22 0 0 5 -5 10
-12 10 -9 0 -9 3 0 12 14 14 16 32 3 23 -10 -5 -5 40 5 57 3 4 -3 8 -12 8 -16
0 -16 1 2 15 12 9 15 18 9 22 -13 11 -18 36 -5 28 5 -3 10 -1 10 4 0 6 -6 11
-12 11 -9 0 -8 4 2 10 10 6 11 10 3 10 -7 0 -13 5 -13 11 0 5 4 8 9 4 5 -3 13
-1 16 5 4 6 1 9 -5 8 -8 -2 -13 14 -15 46 -2 30 1 43 6 35 5 -8 9 -10 9 -5 0
5 -8 18 -17 28 -16 18 -16 18 3 12 17 -7 18 -6 4 11 -9 11 -10 16 -2 11 6 -4
12 -2 12 3 0 6 -5 11 -11 11 -8 0 -8 4 0 13 7 10 7 17 0 24 -8 8 -7 13 1 18 9
6 6 13 -11 27 -23 19 -23 19 -1 8 15 -7 22 -7 22 0 0 5 -5 10 -12 10 -9 0 -9
3 0 12 14 14 16 32 3 23 -10 -5 -5 40 5 57 3 4 -3 8 -12 8 -16 0 -16 1 2 15
12 9 15 18 9 22 -13 11 -18 36 -5 28 5 -3 10 -1 10 4 0 6 -6 11 -12 11 -9 0
-8 4 2 10 10 6 11 10 3 10 -7 0 -13 5 -13 11 0 5 4 8 9 4 5 -3 13 -1 16 5 4 6
1 9 -5 8 -8 -2 -13 14 -15 46 -2 30 1 43 6 35 5 -8 9 -10 9 -5 0 5 -8 18 -17
28 -16 18 -16 18 3 12 17 -7 18 -6 4 11 -9 11 -10 16 -2 11 6 -4 12 -2 12 3 0
6 -5 11 -11 11 -8 0 -8 4 0 13 7 10 7 17 0 24 -8 8 -7 13 1 18 9 6 6 13 -11
27 -23 19 -23 19 -1 8 15 -7 22 -7 22 0 0 5 -5 10 -12 10 -9 0 -9 3 0 12 14
14 16 32 3 23 -10 -5 -5 40 5 57 3 4 -3 8 -12 8 -16 0 -16 1 2 15 12 9 15 18
9 22 -13 11 -18 36 -5 28 5 -3 10 -1 10 4 0 6 -6 11 -12 11 -9 0 -8 4 2 10 8
5 10 10 5 10 -17 0 -12 84 5 92 13 5 12 7 -2 7 -17 1 -22 41 -5 41 5 0 3 8 -4
17 -10 11 -10 14 -1 9 6 -4 12 -2 12 3 0 6 -5 11 -11 11 -8 0 -8 4 0 14 8 10
9 16 1 21 -6 3 -8 10 -5 15 3 4 -5 11 -18 14 -20 6 -21 7 -5 19 15 12 15 14 0
25 -9 7 -12 10 -5 7 19 -9 25 13 6 25 -16 10 -15 11 5 7 12 -3 20 -1 16 4 -3
5 -13 9 -22 10 -14 0 -13 2 3 9 18 8 18 9 -5 9 -20 1 -22 3 -10 11 10 6 11 10
3 10 -7 0 -13 5 -13 11 0 5 4 8 8 5 4 -2 8 6 8 19 0 19 -3 22 -16 15 -12 -6
-17 -5 -17 5 0 8 4 12 9 9 4 -3 8 0 8 5 0 6 -5 11 -11 11 -5 0 -7 5 -4 10 4 6
12 7 18 3 7 -4 5 1 -3 11 -8 10 -15 24 -16 32 -3 19 -30 44 -39 36 -4 -4 1 6
11 23 10 16 13 26 7 22 -8 -5 -13 -3 -13 3 0 6 -5 8 -11 5 -6 -4 -9 0 -7 11 2
13 -3 19 -15 18 -14 -2 -15 1 -6 12 11 13 6 18 -14 15 -4 -1 -2 9 4 21 11 21
11 22 -4 9 -15 -12 -17 -11 -17 8 0 15 -4 20 -12 15 -8 -5 -7 0 2 11 14 16 13
17 -6 11 -18 -6 -21 -3 -19 19 2 14 -1 23 -6 19 -5 -3 -9 2 -9 10 0 15 -12 21
-33 17 -5 -1 -6 3 -2 9 3 5 1 10 -4 10 -6 0 -11 7 -11 17 0 9 -3 13 -6 10 -4
-3 -15 5 -26 18 -11 14 -26 25 -34 25 -8 0 -14 11 -15 28 0 24 -1 25 -9 7 -7
-16 -9 -17 -9 -3 -1 9 -6 20 -13 24 -7 5 -8 3 -3 -6 5 -9 4 -11 -4 -6 -6 4 -9
12 -6 17 4 5 2 9 -2 9 -5 0 -18 7 -29 15 -19 15 -19 15 1 9 16 -5 17 -4 5 5
-9 6 -18 7 -24 1 -12 -12 -46 17 -46 38 0 11 -3 12 -13 4 -10 -9 -18 -6 -31
10 -15 17 -20 18 -27 7 -5 -8 -9 -9 -9 -3 0 5 5 15 11 21 9 9 7 12 -9 10 -11
0 -19 -4 -17 -7 2 -4 -2 -7 -10 -7 -8 0 -14 3 -13 6 3 28 -2 33 -19 20 -11
-10 -14 -10 -9 -1 4 6 2 12 -3 12 -23 0 -26 2 -37 22 -7 14 -14 17 -18 9 -4
-6 -12 -11 -17 -11 -6 0 -8 4 -5 9 3 5 -1 12 -10 15 -8 3 -12 2 -9 -4 3 -6 1
-10 -4 -10 -6 0 -11 7 -11 16 0 13 -3 14 -14 5 -11 -10 -17 -8 -26 6 -10 16
-11 16 -7 -5 3 -12 1 -20 -4 -16 -5 3 -9 12 -9 20 0 8 -4 12 -10 9 -5 -3 -10
0 -11 7 0 7 -4 4 -9 -7 -7 -17 -9 -17 -9 -2 -1 9 -6 17 -12 17 -5 0 -7 -6 -3
-12 4 -7 -3 -4 -15 6 -18 17 -21 17 -15 3 3 -10 1 -17 -5 -17 -6 0 -11 5 -11
11 0 8 -5 7 -15 -1 -9 -7 -18 -10 -22 -6 -3 3 -1 6 6 6 9 0 9 4 -1 14 -9 10
-15 11 -20 2 -6 -8 -8 -8 -8 2 0 6 -5 12 -11 12 -5 0 -7 -5 -3 -12 5 -7 3 -8
-7 -2 -18 11 -50 12 -71 2 -10 -5 -18 -3 -21 5 -4 9 -6 9 -6 -1 -1 -8 -6 -10
-13 -5 -18 10 -39 13 -33 4 5 -10 -42 -8 -51 2 -10 10 -26 9 -20 -1 9 -15 -35
-6 -46 9 -8 11 -9 10 -4 -5 6 -17 5 -17 -11 -5 -15 12 -16 12 -10 -6 7 -19 6
-19 -7 -2 -15 19 -31 24 -20 5 5 -7 3 -8 -7 -2 -18 11 -50 12 -71 2 -10 -5
-18 -3 -21 5 -4 9 -6 9 -6 -1 -1 -8 -6 -10 -13 -5 -18 10 -39 13 -33 4 5 -10
-42 -8 -51 2 -10 10 -26 9 -20 -1 9 -15 -35 -6 -46 9 -8 11 -9 10 -4 -5 6 -17
5 -17 -11 -5 -15 12 -16 12 -10 -6 7 -19 6 -19 -7 -2 -15 19 -31 24 -20 5 5
-7 3 -8 -7 -2 -18 11 -50 12 -71 2 -10 -5 -18 -3 -21 5 -4 9 -6 9 -6 -1 -1 -8
-6 -10 -13 -5 -18 10 -39 13 -33 4 5 -10 -42 -8 -51 2 -10 10 -26 9 -20 -1 9
-15 -35 -6 -46 9 -8 11 -9 10 -4 -5 6 -17 5 -17 -11 -5 -15 12 -16 12 -10 -6
7 -19 6 -19 -7 -2 -15 19 -31 24 -20 5 5 -7 3 -8 -7 -2 -18 11 -50 12 -71 2
-10 -5 -18 -3 -21 5 -4 9 -6 9 -6 -1 -1 -8 -6 -10 -13 -5 -18 10 -39 13 -33 4
5 -10 -42 -8 -51 2 -10 10 -26 9 -20 -1 9 -15 -35 -6 -46 9 -8 11 -9 10 -4 -5
6 -17 5 -17 -11 -5 -15 12 -16 12 -10 -6 7 -19 6 -19 -7 -2 -15 19 -31 24 -20
5 5 -7 3 -8 -7 -2 -18 11 -50 12 -71 2 -10 -5 -18 -3 -21 5 -4 9 -6 9 -6 -1
-1 -8 -6 -10 -13 -5 -18 10 -39 13 -33 4 5 -10 -42 -8 -51 2 -10 10 -26 9 -20
-1 9 -15 -35 -6 -46 9 -8 11 -9 10 -4 -5 6 -17 5 -17 -11 -5 -15 12 -16 12
-10 -6 7 -19 6 -19 -7 -2 -15 19 -31 23 -20 5 6 -10 4 -10 -7 -2 -12 9 -53 12
-61 4 -7 -6 -58 -6 -58 0 0 15 -30 6 -31 -9 0 -10 -4 -8 -9 7 -9 21 -21 31
-19 15 3 -20 -2 -27 -10 -14 -8 12 -12 12 -25 2 -13 -11 -16 -11 -16 0 0 11
-2 11 -10 -1 -9 -13 -10 -13 -10 0 0 12 -2 13 -9 1 -7 -11 -9 -11 -14 0 -4 10
-6 10 -6 2 -1 -7 -6 -13 -12 -13 -5 0 -7 6 -3 13 4 6 4 9 -1 5 -4 -4 -15 -2
-23 5 -13 10 -14 9 -2 -13 9 -19 10 -22 0 -13 -7 6 -19 9 -26 6 -8 -3 -14 1
-14 8 0 11 -3 11 -10 -1 -5 -8 -10 -10 -10 -4 0 6 -7 11 -15 11 -8 0 -12 -4
-9 -9 6 -10 -26 -6 -45 7 -10 5 -16 4 -19 -4 -3 -8 -8 -6 -18 6 -13 17 -14 17
-7 -1 4 -13 3 -17 -5 -12 -7 4 -12 2 -12 -6 0 -8 -5 -6 -11 5 -5 9 -18 17 -27
17 -14 0 -15 -2 -2 -10 12 -7 10 -9 -7 -7 -12 0 -20 4 -17 8 2 4 -1 11 -7 15
-8 4 -9 3 -5 -5 5 -8 0 -10 -18 -7 -15 3 -24 1 -21 -4 3 -5 1 -11 -5 -15 -5
-3 -10 1 -10 9 0 8 -5 18 -10 21 -6 4 -10 3 -9 -2 3 -20 -2 -27 -10 -14 -8 12
-12 12 -25 2 -13 -11 -16 -11 -16 0 0 11 -2 11 -10 -1 -9 -13 -10 -13 -10 0 0
12 -2 13 -9 1 -7 -11 -9 -11 -14 0 -4 10 -6 10 -6 2 -1 -7 -6 -13 -12 -13 -5
0 -7 6 -3 13 4 6 4 9 -1 5 -4 -4 -15 -2 -23 5 -13 10 -14 9 -2 -13 9 -19 10
-22 0 -13 -7 6 -19 9 -26 6 -8 -3 -14 1 -14 8 0 11 -3 11 -10 -1 -5 -8 -10
-10 -10 -4 0 6 -7 11 -15 11 -8 0 -12 -4 -9 -9 6 -10 -26 -6 -45 7 -10 5 -16
4 -19 -4 -3 -8 -8 -6 -18 6 -13 17 -14 17 -7 -1 4 -13 3 -17 -5 -12 -7 4 -12
2 -12 -6 0 -8 -5 -6 -11 5 -5 9 -18 17 -27 17 -14 0 -15 -2 -2 -10 12 -7 10
-9 -7 -7 -12 0 -20 4 -17 8 2 4 -1 11 -7 15 -8 4 -9 3 -5 -5 5 -8 0 -10 -18
-7 -15 3 -24 1 -21 -4 3 -5 1 -11 -5 -15 -5 -3 -10 1 -10 9 0 8 -5 18 -10 21
-6 4 -10 3 -9 -2 3 -20 -2 -27 -10 -14 -8 12 -12 12 -25 2 -13 -11 -16 -11
-16 0 0 11 -2 11 -10 -1 -9 -13 -10 -13 -10 0 0 12 -2 13 -9 1 -7 -11 -9 -11
-14 0 -4 10 -6 10 -6 2 -1 -7 -6 -13 -12 -13 -5 0 -7 6 -3 13 4 6 4 9 -1 5 -4
-4 -15 -2 -23 5 -13 10 -14 9 -2 -13 9 -19 10 -22 0 -13 -7 6 -19 9 -26 6 -8
-3 -14 1 -14 8 0 11 -3 11 -10 -1 -5 -8 -10 -10 -10 -4 0 6 -7 11 -15 11 -8 0
-12 -4 -9 -9 6 -10 -26 -6 -45 7 -10 5 -16 4 -19 -4 -3 -8 -8 -6 -18 6 -13 17
-14 17 -7 -1 4 -13 3 -17 -5 -12 -7 4 -12 2 -12 -6 0 -8 -5 -6 -11 5 -5 9 -18
17 -27 17 -14 0 -15 -2 -2 -10 12 -7 10 -9 -7 -7 -12 0 -20 4 -17 8 2 4 -1 11
-7 15 -8 4 -9 3 -5 -5 5 -8 0 -10 -18 -7 -15 3 -24 1 -21 -4 3 -5 1 -11 -5
-15 -5 -3 -10 1 -10 9 0 8 -5 18 -10 21 -6 4 -10 3 -9 -2 3 -20 -2 -27 -10
-14 -8 12 -12 12 -25 2 -12 -10 -16 -10 -16 -2 0 7 -5 9 -10 6 -6 -4 -7 -12
-3 -18 4 -7 0 -6 -10 2 -9 7 -14 18 -10 25 4 6 -1 5 -10 -3 -19 -15 -23 -26
-5 -15 7 4 8 3 4 -4 -10 -17 -15 -15 -26 11 -8 20 -9 20 -10 2z m1740 -11 c0
-8 -19 -13 -24 -6 -3 5 1 9 9 9 8 0 15 -2 15 -3z m320 0 c0 -8 -19 -13 -24 -6
-3 5 1 9 9 9 8 0 15 -2 15 -3z m320 0 c0 -8 -19 -13 -24 -6 -3 5 1 9 9 9 8 0
15 -2 15 -3z m320 0 c0 -8 -19 -13 -24 -6 -3 5 1 9 9 9 8 0 15 -2 15 -3z m320
0 c0 -8 -19 -13 -24 -6 -3 5 1 9 9 9 8 0 15 -2 15 -3z m320 0 c0 -8 -19 -13
-24 -6 -3 5 1 9 9 9 8 0 15 -2 15 -3z m925 -663 c3 -5 2 -12 -3 -15 -5 -3 -9
1 -9 9 0 17 3 19 12 6z m70 -311 c3 -5 2 -10 -4 -10 -5 0 -13 5 -16 10 -3 6
-2 10 4 10 5 0 13 -4 16 -10z m-74 -3583 c-6 -8 -7 -18 -3 -22 4 -5 1 -5 -6
-1 -10 6 -10 11 -1 22 6 8 14 14 16 14 3 0 0 -6 -6 -13z m-5046 -185 c-3 -3
-11 0 -18 7 -9 10 -8 11 6 5 10 -3 15 -9 12 -12z m15 -22 c8 -5 11 -10 5 -10
-5 0 -17 5 -25 10 -8 5 -10 10 -5 10 6 0 17 -5 25 -10z m4710 -220 c-24 -15
-36 -11 -14 4 10 8 21 12 24 10 2 -3 -2 -9 -10 -14z m-3896 -198 c3 -5 -1 -9
-9 -9 -8 0 -12 4 -9 9 3 4 7 8 9 8 2 0 6 -4 9 -8z"/>
<path d="M3267 7729 c7 -7 15 -10 18 -7 3 3 -2 9 -12 12 -14 6 -15 5 -6 -5z"/>
<path d="M7300 7585 c0 -2 6 -8 13 -14 10 -8 14 -7 14 2 0 8 -6 14 -14 14 -7
0 -13 -1 -13 -2z"/>
<path d="M2733 7415 c0 -8 4 -12 9 -9 5 3 6 10 3 15 -9 13 -12 11 -12 -6z"/>
<path d="M2444 6326 c1 -8 5 -18 8 -22 4 -3 5 1 4 10 -1 8 -5 18 -8 22 -4 3
-5 -1 -4 -10z"/>
<path d="M7784 6166 c1 -8 5 -18 8 -22 4 -3 5 1 4 10 -1 8 -5 18 -8 22 -4 3
-5 -1 -4 -10z"/>
<path d="M2444 5846 c1 -8 5 -18 8 -22 4 -3 5 1 4 10 -1 8 -5 18 -8 22 -4 3
-5 -1 -4 -10z"/>
<path d="M7784 5686 c1 -8 5 -18 8 -22 4 -3 5 1 4 10 -1 8 -5 18 -8 22 -4 3
-5 -1 -4 -10z"/>
<path d="M2444 5366 c1 -8 5 -18 8 -22 4 -3 5 1 4 10 -1 8 -5 18 -8 22 -4 3
-5 -1 -4 -10z"/>
<path d="M7784 5206 c1 -8 5 -18 8 -22 4 -3 5 1 4 10 -1 8 -5 18 -8 22 -4 3
-5 -1 -4 -10z"/>
<path d="M2444 4886 c1 -8 5 -18 8 -22 4 -3 5 1 4 10 -1 8 -5 18 -8 22 -4 3
-5 -1 -4 -10z"/>
<path d="M7784 4566 c1 -8 5 -18 8 -22 4 -3 5 1 4 10 -1 8 -5 18 -8 22 -4 3
-5 -1 -4 -10z"/>
<path d="M2444 4406 c1 -8 5 -18 8 -22 4 -3 5 1 4 10 -1 8 -5 18 -8 22 -4 3
-5 -1 -4 -10z"/>
<path d="M7784 4086 c1 -8 5 -18 8 -22 4 -3 5 1 4 10 -1 8 -5 18 -8 22 -4 3
-5 -1 -4 -10z"/>
<path d="M2444 3926 c1 -8 5 -18 8 -22 4 -3 5 1 4 10 -1 8 -5 18 -8 22 -4 3
-5 -1 -4 -10z"/>
<path d="M7784 3606 c1 -8 5 -18 8 -22 4 -3 5 1 4 10 -1 8 -5 18 -8 22 -4 3
-5 -1 -4 -10z"/>
<path d="M7726 3262 c-2 -4 0 -14 6 -22 8 -12 9 -12 5 2 -3 9 -1 19 6 22 9 3
9 5 0 5 -6 1 -14 -3 -17 -7z"/>
<path d="M2813 2805 c0 -8 4 -12 9 -9 5 3 6 10 3 15 -9 13 -12 11 -12 -6z"/>
<path d="M2896 2742 c-3 -5 1 -9 9 -9 8 0 12 4 9 9 -3 4 -7 8 -9 8 -2 0 -6 -4
-9 -8z"/>
</g>
</svg>
